<?xml version="1.0" standalone="no"?><!DOCTYPE svg PUBLIC "-//W3C//DTD SVG 1.1//EN" "http://www.w3.org/Graphics/SVG/1.1/DTD/svg11.dtd"><svg class="icon" width="200px" height="200.00px" viewBox="0 0 1024 1024" version="1.1" xmlns="http://www.w3.org/2000/svg"><path fill="#333333" d="M393.777435 708.969047c0-31.191396 4.481058-60.912301 13.44829-89.092108 8.967232-28.180829 21.652136-54.188156 37.983079-77.887928 16.330944-23.7581 35.739992-44.897559 58.154491-63.3447 22.419616-18.509563 47.14167-33.174564 73.977875-44.25697 1.539053-4.227278 2.883677-8.259104 3.90903-11.914354l3.968381-11.07729c1.153266-3.650133 2.115174-7.110955 3.26844-10.247388 5.252631-1.539053 10.120498-4.421706 14.860453-8.713452 4.290723-3.650133 8.131191-8.839319 11.527544-15.435551 3.523243-6.53381 5.765307-15.627932 6.724145-27.282367 1.025353-8.458649 1.025353-15.563464-0.318248-21.394263-1.216711-5.829775-3.009544-10.505261-5.126764-14.219863-2.110057-4.16281-4.993734-7.623631-8.775874-10.246365 0-21.648043-1.281179-42.977837-4.031826-64.11218-2.629897-18.447141-6.983041-37.792745-13.388938-58.159608-6.211469-20.304442-16.330944-38.940894-30.03813-55.785537-5.829775-7.433296-13.833053-14.733563-24.081465-22.160719-10.379395-7.369851-22.032806-13.966083-35.290761-19.727297-13.130042-5.829775-27.223015-10.505261-42.273802-13.833053-14.986319-3.459798-30.169113-5.126764-45.473681-5.126764-12.104689 0-24.657586 0.899486-37.597293 2.755764-12.876262 1.857301-25.942859 5.443989-39.136346 10.628058-13.193487 5.253654-25.875321 12.554944-37.978986 21.780049-12.235672 9.283434-23.509437 21.261233-34.07405 35.993772-11.082406 15.246239-19.213597 32.66598-24.594141 52.266387-5.252631 19.4684-8.902764 37.661761-11.019984 54.568826-2.110057 20.045545-3.136433 40.030715-3.136433 60.07626-4.739954 5.317099-8.199753 10.828626-10.311857 16.653285-2.62785 5.702885-4.16281 12.363585-4.739954 19.791765-0.512676 7.367805 0.577145 15.498996 3.200902 24.534789 2.62478 8.897647 5.765307 15.817244 9.479909 20.494777 3.713578 4.803399 7.173376 8.453533 10.310833 11.07729 3.650133 2.693342 7.369851 4.486174 11.083429 5.575995 2.623757 8.390088 5.252631 16.654308 7.877411 24.531719 2.687202 6.786567 5.633301 13.574157 9.156544 20.175505 3.396353 6.597255 7.236821 11.655458 11.399631 15.369036 8.967232 7.367805 17.166985 14.604626 24.529673 21.779026 7.369851 7.173376 11.660574 16.780175 12.685927 28.821419 0.50756 8.453533 0.766456 16.07614 0.766456 22.991644 0 6.791683-1.343601 13.452383-3.971451 19.794835-2.62478 6.274914-6.978948 12.743232-12.999059 19.404955-6.088672 6.596232-14.670118 13.256932-25.683962 20.23895-9.543354 5.767354-19.986193 10.633175-31.259958 14.537088-11.336186 3.973498-23.054065 7.687076-35.227316 11.083429-12.104689 3.458775-24.016996 6.91448-35.609009 10.69662-11.595083 3.712555-22.159696 8.516977-31.577183 14.727423-9.416464 6.088672-17.483186 13.325493-24.085558 21.779026-6.596232 8.453533-10.951423 19.151176-13.06148 32.471552-5.252631 34.20094-6.470365 62.386886-3.586688 84.225263 2.87856 21.843494 7.236821 34.841529 13.06148 39.068807 3.142573 2.692319 10.828626 5.252631 22.932292 8.008394 12.104689 2.560312 26.837228 5.252631 44.257993 7.813966 17.420765 2.755764 36.829813 5.126764 58.154491 7.559163 21.394263 2.371 42.914392 4.544503 64.497966 6.338359 21.584598 1.792832 42.596144 3.26844 62.894446 4.358261 20.240997 1.020236 38.046524 1.597381 53.357232 1.597381l21.324678 0c-12.68081-22.097274-22.605857-45.791929-29.652344-70.835302C397.364123 762.64248 393.777435 736.382397 393.777435 708.969047z"  /><path fill="#333333" d="M920.007531 612.765985c-13.257955-30.359448-31.000038-56.875359-53.28867-79.548754-22.48306-22.60995-48.870034-40.543392-79.167061-53.737902-30.423917-13.192464-62.704111-19.789719-97.096409-19.789719-34.783201 0-67.318198 6.597255-97.741092 19.789719-30.233582 13.193487-56.620555 31.127951-79.036078 53.737902-22.482037 22.737864-40.161698 49.189306-53.356208 79.548754-13.193487 30.360472-19.854187 62.704111-19.854187 96.969519 0 34.332946 6.659677 66.677609 19.854187 96.969519 13.193487 30.296003 30.874171 56.814983 53.419653 79.488379 22.414499 22.605857 48.802496 40.412408 79.036078 53.352115 30.359448 13.002129 62.894446 19.467377 97.677647 19.467377 34.391275 0 66.672492-6.465249 97.096409-19.467377 30.233582-12.939707 56.620555-30.746258 79.167061-53.352115 22.288632-22.60995 40.030715-49.128931 53.28867-79.488379 13.130042-30.355355 19.789719-62.636572 19.789719-96.969519C939.797249 675.471119 933.137573 643.12748 920.007531 612.765985zM635.942847 663.622256l1.023306 0-21.816888 66.282612-88.287789-66.282612L635.942847 663.622256zM699.154517 790.67493l58.268078-40.739866 26.015513 98.435916L699.154517 790.67493zM771.585153 725.053374l-0.00307-0.005117-99.937107 71.371514-80.638575 51.951209 32.918737-103.795994 0.128937 0.037862 0.949628-3.445472 0.991584-3.120061-0.10847-0.081864 26.843368-79.08622 0.948605-3.089361 36.461423-97.735975 45.709041 105.570407 117.554346 0L771.585153 725.053374z"  /></svg>