<?xml version="1.0" standalone="no"?><!DOCTYPE svg PUBLIC "-//W3C//DTD SVG 1.1//EN" "http://www.w3.org/Graphics/SVG/1.1/DTD/svg11.dtd"><svg class="icon" width="200px" height="200.00px" viewBox="0 0 1024 1024" version="1.1" xmlns="http://www.w3.org/2000/svg"><path fill="#333333" d="M512 1024C229.24 1024 0 794.76 0 512S229.24 0 512 0s512 229.24 512 512-229.24 512-512 512z m273.067-682.667h-94.174l22.733-84.855a34.133 34.133 0 0 0-65.946-17.647l-27.477 102.502h-134.11l22.733-84.855a34.133 34.133 0 0 0-65.946-17.647l-27.477 102.502H273.067a34.133 34.133 0 0 0 0 68.267H397.14l-45.738 170.667h-112.47a34.133 34.133 0 0 0 0 68.266h94.174l-22.733 84.856a34.133 34.133 0 0 0 65.946 17.647l27.443-102.503h134.144l-22.733 84.856a34.133 34.133 0 0 0 65.946 17.647l27.443-102.503h142.37a34.133 34.133 0 0 0 0-68.266H626.86L672.597 409.6h112.47a34.133 34.133 0 0 0 0-68.267zM422.059 580.267L467.797 409.6h134.144l-45.738 170.667H422.059z" /></svg>