<?xml version="1.0" standalone="no"?><!DOCTYPE svg PUBLIC "-//W3C//DTD SVG 1.1//EN" "http://www.w3.org/Graphics/SVG/1.1/DTD/svg11.dtd"><svg class="icon" width="200px" height="200.00px" viewBox="0 0 1024 1024" version="1.1" xmlns="http://www.w3.org/2000/svg"><path d="M528 656c-25.6 0-49.6-3.2-72-8v224h120V652.8c-16 2.4-32 3.2-48 3.2z" fill="#E54B9B" /><path d="M792 88h56c8.8 0 16-7.2 16-16V40c0-8.8-7.2-16-16-16H176c-8.8 0-16 7.2-16 16v32c0 8.8 7.2 16 16 16h64l552-8v8z" fill="#3FA7F7" /><path d="M808 904c0 5.6-0.8 11.2-2.4 16 1.6 4.8 2.4 10.4 2.4 16v-32zM216 936c0-5.6 0.8-11.2 2.4-16-1.6-4.8-2.4-10.4-2.4-16v32zM280 872c-29.6 0-54.4 20.8-61.6 48 7.2 27.2 32 48 61.6 48h464c29.6 0 54.4-20.8 61.6-48-7.2-28-32-48-61.6-48H280z" fill="#3FA7F7" /><path d="M576 652.8c88-12.8 167.2-64 216-140.8V80l-552 8v424s76.8 106.4 216 136c22.4 4.8 46.4 8 72 8 16 0 32-0.8 48-3.2zM576 456c0 8.8-7.2 16-16 16h-72c-8.8 0-16-7.2-16-16V280c0-8.8 7.2-16 16-16h72c8.8 0 16 7.2 16 16v176z m112 0c0 8.8-7.2 16-16 16h-72c-8.8 0-16-7.2-16-16V376c0-8.8 7.2-16 16-16h72c8.8 0 16 7.2 16 16v80z m-312 16c-8.8 0-16-7.2-16-16V336c0-8.8 7.2-16 16-16h72c8.8 0 16 7.2 16 16v120c0 8.8-7.2 16-16 16h-72z" fill="#F4D576" /><path d="M88 255.2C88 380 240 400 240 400V128s-152 2.4-152 127.2zM944 255.2C944 130.4 792 128 792 128v272s152-20 152-144.8z" fill="#E54B9B" /><path d="M464 456V336c0-8.8-7.2-16-16-16h-72c-8.8 0-16 7.2-16 16v120c0 8.8 7.2 16 16 16h72c8.8 0 16-7.2 16-16z m-28.8-30.4h-37.6c0-1.6 0-3.2 0.8-4.8 0.8-2.4 2.4-4.8 4.8-8s4.8-5.6 8.8-8.8c6.4-4.8 10.4-8.8 12.8-12 2.4-3.2 3.2-5.6 3.2-8.8 0-2.4-0.8-4.8-3.2-7.2-1.6-1.6-4.8-3.2-8-3.2s-6.4 0.8-8 3.2-3.2 4.8-3.2 8.8l-7.2-0.8c0.8-5.6 2.4-9.6 5.6-12 3.2-3.2 7.2-4 12.8-4 5.6 0 9.6 1.6 12.8 4.8s4.8 7.2 4.8 11.2c0 2.4-0.8 4.8-1.6 6.4s-2.4 4.8-4.8 7.2-5.6 5.6-11.2 10.4c-4 3.2-7.2 5.6-8 7.2-0.8 1.6-2.4 2.4-3.2 4h28v6.4zM560 264h-72c-8.8 0-16 7.2-16 16v176c0 8.8 7.2 16 16 16h72c8.8 0 16-7.2 16-16V280c0-8.8-7.2-16-16-16z m-31.2 89.6h-7.2v-44.8c-1.6 1.6-4 3.2-6.4 4.8s-5.6 3.2-7.2 4v-6.4c4-1.6 7.2-4 10.4-6.4s4.8-4.8 6.4-8h4.8v56.8zM672 360h-72c-8.8 0-16 7.2-16 16v80c0 8.8 7.2 16 16 16h72c8.8 0 16-7.2 16-16V376c0-8.8-7.2-16-16-16z m-25.6 77.6c-4 3.2-8 5.6-13.6 5.6-4.8 0-9.6-1.6-12.8-4.8s-5.6-7.2-5.6-12l7.2-0.8c0.8 4 2.4 7.2 4 8.8 1.6 1.6 4 2.4 7.2 2.4s6.4-0.8 8-3.2c2.4-2.4 3.2-4.8 3.2-8.8 0-3.2-0.8-5.6-3.2-8-2.4-2.4-4.8-3.2-8-3.2-1.6 0-3.2 0-4.8 0.8l0.8-6.4h0.8c3.2 0 5.6-0.8 8-2.4 2.4-1.6 3.2-4 3.2-7.2 0-2.4-0.8-4.8-2.4-6.4-1.6-1.6-4-2.4-6.4-2.4-2.4 0-4.8 0.8-7.2 2.4-1.6 1.6-3.2 4-3.2 8l-7.2-1.6c0.8-4.8 3.2-8 5.6-11.2 3.2-2.4 7.2-4 11.2-4 3.2 0 6.4 0.8 8.8 2.4 2.4 1.6 4.8 3.2 6.4 5.6 1.6 2.4 2.4 4.8 2.4 7.2 0 2.4-0.8 4.8-1.6 6.4s-3.2 4-5.6 4.8c3.2 0.8 6.4 2.4 8 4.8 1.6 2.4 3.2 5.6 3.2 9.6-0.8 5.6-2.4 9.6-6.4 13.6z" fill="#EA535A" /><path d="M410.4 415.2c0.8-1.6 4-4 8-7.2 4.8-4 8.8-8 11.2-10.4s4-4.8 4.8-7.2 1.6-4.8 1.6-6.4c0-4.8-1.6-8-4.8-11.2s-8-4.8-13.6-4.8-9.6 1.6-12.8 4c-3.2 3.2-4.8 7.2-5.6 12l7.2 0.8c0-3.2 0.8-6.4 3.2-8.8s4.8-3.2 8-3.2 5.6 0.8 8 3.2c1.6 1.6 3.2 4 3.2 7.2 0 2.4-0.8 5.6-3.2 8.8-2.4 3.2-6.4 7.2-12.8 12-4 3.2-7.2 6.4-8.8 8.8s-4 4.8-4.8 8c-0.8 1.6-0.8 3.2-0.8 4.8h37.6v-6.4H408c0-1.6 0.8-3.2 2.4-4zM518.4 304c-3.2 2.4-6.4 4.8-10.4 6.4v6.4c2.4-0.8 4.8-2.4 7.2-4s4.8-3.2 6.4-4.8v44.8h7.2V296h-4.8c-0.8 2.4-3.2 4.8-5.6 8zM641.6 410.4c2.4-0.8 4.8-3.2 5.6-4.8s1.6-4 1.6-6.4c0-2.4-0.8-4.8-2.4-7.2-1.6-2.4-3.2-4-6.4-5.6-2.4-1.6-5.6-2.4-8.8-2.4-4.8 0-8 1.6-11.2 4-3.2 2.4-4.8 6.4-5.6 11.2l7.2 1.6c0.8-3.2 1.6-6.4 3.2-8 1.6-1.6 4-2.4 7.2-2.4 2.4 0 4.8 0.8 6.4 2.4 1.6 1.6 2.4 4 2.4 6.4 0 3.2-1.6 5.6-3.2 7.2-2.4 1.6-4.8 2.4-8 2.4h-0.8l-0.8 6.4c1.6-0.8 4-0.8 4.8-0.8 3.2 0 5.6 0.8 8 3.2 2.4 2.4 3.2 4.8 3.2 8s-0.8 6.4-3.2 8.8c-2.4 2.4-4.8 3.2-8 3.2-2.4 0-4.8-0.8-7.2-2.4-1.6-1.6-3.2-4.8-4-8.8l-7.2 0.8c0.8 4.8 2.4 8.8 5.6 12s7.2 4.8 12.8 4.8c5.6 0 10.4-1.6 13.6-5.6 4-3.2 5.6-8 5.6-12.8 0-4-0.8-6.4-3.2-9.6-1.6-3.2-4-4.8-7.2-5.6z" fill="#FFFFFF" /></svg>