<?xml version="1.0" standalone="no"?><!DOCTYPE svg PUBLIC "-//W3C//DTD SVG 1.1//EN" "http://www.w3.org/Graphics/SVG/1.1/DTD/svg11.dtd"><svg class="icon" width="200px" height="200.00px" viewBox="0 0 1024 1024" version="1.1" xmlns="http://www.w3.org/2000/svg"><path d="M412 808C193.6 808 16 630.4 16 412S193.6 16 412 16 808 193.6 808 412 630.4 808 412 808z m0-760C211.2 48 48 211.2 48 412S211.2 776 412 776 776 612.8 776 412 612.8 48 412 48z" fill="#3997E0" /><path d="M416 416m-305.6 0a305.6 305.6 0 1 0 611.2 0 305.6 305.6 0 1 0-611.2 0Z" fill="#F4D576" /><path d="M972.8 897.6l-158.4-158.4c-19.2-19.2-47.2-26.4-72-20.8l-28-28c-6.4-6.4-16-6.4-22.4 0l-6.4 5.6c-6.4 6.4-6.4 16 0 22.4l19.2 19.2-0.8 1.6c0.8-0.8 0.8-0.8 1.6-0.8l6.4 6.4c-8 26.4-1.6 56 20 77.6l158.4 158.4c53.6 53.6 72.8 40.8 94.4 17.6 27.2-23.2 52-36-12-100.8z" fill="#F477FF" /></svg>