<?xml version="1.0" standalone="no"?><!DOCTYPE svg PUBLIC "-//W3C//DTD SVG 1.1//EN" "http://www.w3.org/Graphics/SVG/1.1/DTD/svg11.dtd"><svg class="icon" width="200px" height="200.00px" viewBox="0 0 1024 1024" version="1.1" xmlns="http://www.w3.org/2000/svg"><path fill="#333333" d="M512 10.24C230.4 10.24 5.12 240.64 10.24 522.24c5.12 261.12 225.28 476.16 486.4 486.4 281.6 10.24 512-220.16 512-501.76H512V10.24zM988.16 460.8h-399.36c-15.36 0-25.6-10.24-25.6-25.6V35.84c0-20.48 25.6-30.72 35.84-20.48 215.04 25.6 384 194.56 409.6 409.6 0 5.12 5.12 10.24 5.12 15.36 0 10.24-10.24 20.48-25.6 20.48zM614.4 409.6h343.04A424.96 424.96 0 0 0 614.4 66.56V409.6z" /></svg>