<?xml version="1.0" standalone="no"?><!DOCTYPE svg PUBLIC "-//W3C//DTD SVG 1.1//EN" "http://www.w3.org/Graphics/SVG/1.1/DTD/svg11.dtd"><svg class="icon" width="200px" height="200.00px" viewBox="0 0 1024 1024" version="1.1" xmlns="http://www.w3.org/2000/svg"><path fill="#333333" d="M555.015 75.028c0 0-20.876-21.851-41.696-21.851-20.876 0-41.754 21.851-41.754 21.851s-366.887 366.829-393.327 393.269c-35.157 35.215-20.819 65.555-20.819 65.555l17.951 19.845c0 0 18.698 20.819 41.752 20.819h41.696v354.613c0 0-1.951 41.696 41.752 41.696h166.839c43.359 0 41.696-41.696 41.696-41.696v-104.267c0 0 1.434-41.754 41.752-41.754h104.153c41.925 0 41.754 41.754 41.754 41.754v104.267c0 0-2.351 41.696 41.696 41.696h166.839c44.162 0 41.752-41.696 41.752-41.696v-354.556h41.752c21.966 0 41.754-20.819 41.754-20.819l20.819-19.844c0 0 39.057-29.365 2.868-65.555l-399.234-393.325z" /></svg>