<?xml version="1.0" standalone="no"?><!DOCTYPE svg PUBLIC "-//W3C//DTD SVG 1.1//EN" "http://www.w3.org/Graphics/SVG/1.1/DTD/svg11.dtd"><svg class="icon" width="200px" height="200.00px" viewBox="0 0 1024 1024" version="1.1" xmlns="http://www.w3.org/2000/svg"><path fill="#333333" d="M504.407849 1008.496598c217.331806 0 369.195305-153.979186 399.233974-377.122209C956.241403 240.670597 773.300056 22.583791 753.375024 9.633182c-99.555321 259.214472-226.883106 211.831259-248.965971 211.831259 19.728756-42.052451 104.247885-108.69119 89.221326-99.127849-3.694325 2.349292-166.613104-24.635658-345.541027 150.268003C131.325555 386.744554 110.895985 531.076108 110.895985 614.984734 110.895985 832.31654 287.077247 1008.496598 504.407849 1008.496598L504.407849 1008.496598zM300.306013 506.217683c0 0-48.840232 150.092197 52.592356 138.827395 101.433792-11.270823 123.974233-131.489319 270.486499-131.489319 0 0-122.40282 189.756823-45.390348 225.441741 77.012472 35.690939 97.29634-7.513882 169.052707-60.106238C737.659692 763.41882 705.651037 934.418634 468.979414 915.632726 232.299362 896.849225 119.982483 686.543621 300.306013 506.217683L300.306013 506.217683zM300.306013 506.217683" /></svg>