<?xml version="1.0" standalone="no"?><!DOCTYPE svg PUBLIC "-//W3C//DTD SVG 1.1//EN" "http://www.w3.org/Graphics/SVG/1.1/DTD/svg11.dtd"><svg class="icon" width="200px" height="200.00px" viewBox="0 0 1024 1024" version="1.1" xmlns="http://www.w3.org/2000/svg"><path fill="#333333" d="M269 705.7H166.1c-9.2 0-16.7 7.5-16.7 16.8v139.3c0 9.3 7.5 16.8 16.7 16.8H269c9.2 0 16.7-7.5 16.7-16.8V722.5c-0.1-9.3-7.5-16.8-16.7-16.8z m211-177.3H373.8c-9.2 0-16.7 7.5-16.7 16.8v316.5c0 9.3 7.5 16.8 16.7 16.8H480c9.2 0 16.7-7.5 16.7-16.8V545.2c0-9.3-7.5-16.8-16.7-16.8z m206.5 67.5H581.4c-9.2 0-16.7 7.5-16.7 16.8v249.1c0 9.3 7.5 16.8 16.7 16.8h105.1c9.2 0 16.7-7.5 16.7-16.8V612.7c0-9.3-7.5-16.8-16.7-16.8z m208.8-171.5H789.1c-9.2 0-16.7 7.5-16.7 16.8v420.6c0 9.3 7.5 16.8 16.7 16.8h106.2c9.2 0 16.7-7.5 16.7-16.8V441.2c0-9.3-7.5-16.8-16.7-16.8zM732.7 145.5l63.5 67.4L621 418.3 435.4 234.5 112 534.2l45 64.5 276.4-259.3L621 533.7l228.3-278.5 62.7 65.1V145.5H732.7z" /></svg>