<?xml version="1.0" standalone="no"?><!DOCTYPE svg PUBLIC "-//W3C//DTD SVG 1.1//EN" "http://www.w3.org/Graphics/SVG/1.1/DTD/svg11.dtd"><svg class="icon" width="200px" height="200.00px" viewBox="0 0 1024 1024" version="1.1" xmlns="http://www.w3.org/2000/svg"><path d="M120.96 380.8c-4.48 0-7.68-3.2-7.68-7.68s3.2-7.68 7.68-7.68C371.2 365.44 590.72 288 791.68 129.28c3.2-2.56 8.32-1.92 10.88 1.28 2.56 3.2 1.92 8.32-1.28 10.88C600.32 300.16 371.2 380.8 120.96 380.8z" fill="#d81e06" /><path d="M823.04 176.64c-2.56 0-4.48-1.28-5.76-2.56l-53.76-67.84c-1.28-1.92-1.92-4.48-1.28-7.04 0.64-2.56 2.56-4.48 5.12-5.12l108.8-30.72c3.2-0.64 6.4 0 8.32 2.56 1.92 2.56 1.92 5.76 0.64 8.32L830.08 172.8c-1.28 1.92-3.84 3.84-7.04 3.84 0.64 0 0.64 0 0 0z m-40.96-71.04l39.68 49.92 40.32-72.96-80 23.04z" fill="#d81e06" /><path d="M834.13333333 467.84c-47.36 0-83.2-66.56-83.2-110.08 0-46.08 37.12-83.2 83.2-83.2s83.2 37.12 83.2 83.2c0 43.52-35.84 110.08-83.2 110.08z m0-177.92c-37.76 0-68.48 30.72-68.48 68.48 0 37.76 30.72 94.72 68.48 94.72 37.76 0 68.48-57.6 68.48-94.72-0.64-37.76-31.36-68.48-68.48-68.48zM893.65333333 986.88h-119.68c-3.84 0-7.04-3.2-7.68-7.04l-16-215.68c0-4.48 2.56-7.68 7.04-8.32 3.84-0.64 7.68 2.56 8.32 7.04l15.36 208.64h105.6l15.36-208.64c0-4.48 3.84-7.04 8.32-7.04 4.48 0 7.04 3.84 7.04 8.32l-16 215.68c-0.64 3.84-3.84 7.04-7.68 7.04z" fill="#1296db" /><path d="M909.65333333 579.2h-1.28c-3.84-0.64-7.04-4.48-6.4-8.32l10.88-70.4c-0.64-16.64-24.32-32-43.52-32h-71.04c-18.56 0-42.88 15.36-43.52 32l10.88 70.4c0.64 3.84-1.92 7.68-6.4 8.32-4.48 0.64-7.68-1.92-8.32-6.4l-10.88-70.4v-1.28c0-26.24 32-48 58.24-48h71.04c26.24 0 58.24 21.12 58.24 48v1.28l-10.88 70.4c-0.64 3.2-3.84 6.4-7.04 6.4z" fill="#1296db" /><path d="M969.17333333 771.2h-270.72c-2.56 0-4.48-1.28-6.4-3.2-1.28-1.92-1.92-4.48-1.28-7.04l59.52-192c1.28-3.2 3.84-5.12 7.04-5.12h151.68c3.2 0 6.4 1.92 7.04 5.12l59.52 192c0.64 2.56 0 5.12-1.28 7.04-0.64 1.92-2.56 3.2-5.12 3.2z m-260.48-15.36h250.24l-55.04-176.64h-140.8l-54.4 176.64z" fill="#1296db" /><path d="M833.49333333 986.88c-4.48 0-7.68-3.2-7.68-7.68v-215.68c0-4.48 3.2-7.68 7.68-7.68s7.68 3.2 7.68 7.68V979.2c0 3.84-3.2 7.68-7.68 7.68zM834.13333333 505.6c-24.96 0-45.44-20.48-45.44-45.44 0-4.48 3.2-7.68 7.68-7.68s7.68 3.2 7.68 7.68c0 16.64 13.44 30.08 30.08 30.08s30.08-13.44 30.08-30.08c0-4.48 3.2-7.68 7.68-7.68s7.68 3.2 7.68 7.68c-0.64 25.6-20.48 45.44-45.44 45.44zM722.77333333 692.48c-1.28 0-1.92 0-3.2-0.64l-30.08-13.44c-3.2-1.28-5.12-5.76-3.84-8.96l54.4-176c1.28-3.84 5.76-6.4 9.6-5.12 3.84 1.28 6.4 5.76 5.12 9.6l-52.48 169.6 23.68 10.88c3.84 1.92 5.76 6.4 3.84 10.24-1.28 1.92-4.48 3.84-7.04 3.84zM944.85333333 692.48c-2.56 0-5.76-1.92-7.04-4.48-1.92-3.84 0-8.32 3.84-10.24l23.68-10.88-52.48-169.6c-1.28-3.84 1.28-8.32 5.12-9.6 3.84-1.28 8.32 1.28 9.6 5.12l54.4 176c1.28 3.84-0.64 7.68-3.84 8.96l-29.44 13.44c-1.92 1.28-2.56 1.28-3.84 1.28zM914.77333333 619.52h-161.92c-4.48 0-7.68-3.2-7.68-7.68s3.2-7.68 7.68-7.68h161.92c4.48 0 7.68 3.2 7.68 7.68s-3.2 7.68-7.68 7.68z" fill="#1296db" /><path d="M127.14666667 614.4c-35.84 0-62.08-48.64-62.08-81.28 0-33.92 27.52-62.08 62.08-62.08 33.92 0 62.08 27.52 62.08 62.08 0 33.28-26.24 81.28-62.08 81.28z m0-127.36c-25.6 0-46.72 21.12-46.72 46.72 0 28.16 23.04 65.92 46.72 65.92 23.68 0 46.72-37.76 46.72-65.92 0-25.6-21.12-46.72-46.72-46.72zM170.02666667 986.88H84.26666667c-3.84 0-7.04-3.2-7.68-7.04l-11.52-154.88c0-4.48 2.56-7.68 7.04-8.32 3.84-0.64 7.68 2.56 8.32 7.04l10.88 147.84h71.68l10.88-147.84c0-4.48 3.84-7.04 8.32-7.04 4.48 0 7.04 3.84 7.04 8.32L177.06666667 979.84c0 3.84-3.2 7.04-7.04 7.04z" fill="#1296db" /><path d="M72.74666667 694.4c-3.84 0-7.04-2.56-7.68-6.4l-7.68-50.56v-1.28c0-20.48 24.32-36.48 44.16-36.48h51.2c19.84 0 44.16 16 44.16 36.48v1.28l-7.68 50.56c-0.64 3.84-4.48 7.04-8.32 6.4-3.84-0.64-7.04-4.48-6.4-8.32l7.68-49.92c-0.64-10.88-16.64-20.48-28.8-20.48h-51.2c-12.16 0-28.16 10.24-28.8 20.48l7.68 49.92c0.64 3.84-1.92 7.68-6.4 8.32h-1.92z" fill="#1296db" /><path d="M224.42666667 832H29.86666667c-2.56 0-4.48-1.28-6.4-3.2-1.28-1.92-1.92-4.48-1.28-7.04l42.88-137.6c1.28-3.2 3.84-5.12 7.04-5.12h108.8c3.2 0 6.4 1.92 7.04 5.12l42.88 137.6c0.64 2.56 0 5.12-1.28 7.04-0.64 1.92-3.2 3.2-5.12 3.2z m-184.32-15.36h173.44l-37.76-122.88H78.50666667l-38.4 122.88z" fill="#1296db" /><path d="M127.14666667 986.88c-4.48 0-7.68-3.2-7.68-7.68v-154.88c0-4.48 3.2-7.68 7.68-7.68s7.68 3.2 7.68 7.68V979.2c0 3.84-3.84 7.68-7.68 7.68zM127.14666667 641.92c-19.2 0-34.56-15.36-34.56-34.56 0-4.48 3.2-7.68 7.68-7.68s7.68 3.2 7.68 7.68c0 10.88 8.96 19.2 19.84 19.2 10.88 0 19.2-8.96 19.2-19.2 0-4.48 3.2-7.68 7.68-7.68s7.68 3.2 7.68 7.68c-0.64 19.2-16 34.56-35.2 34.56zM47.14666667 775.68c-1.28 0-1.92 0-3.2-0.64l-21.12-9.6c-3.2-1.28-5.12-5.76-3.84-8.96l39.04-126.08c1.28-3.84 5.76-6.4 9.6-5.12 3.84 1.28 6.4 5.76 5.12 9.6l-37.12 119.68 15.36 7.04c3.84 1.92 5.76 6.4 3.84 10.24-1.92 1.92-4.48 3.84-7.68 3.84zM206.50666667 775.68c-2.56 0-5.76-1.92-7.04-4.48-1.92-3.84 0-8.32 3.84-10.24l15.36-7.04-37.12-119.68c-1.28-3.84 1.28-8.32 5.12-9.6 3.84-1.28 8.32 1.28 9.6 5.12l39.04 126.08c1.28 3.84-0.64 7.68-3.84 8.96l-21.12 9.6c-1.28 1.28-2.56 1.28-3.84 1.28z" fill="#1296db" /><path d="M185.38666667 723.2H68.90666667c-4.48 0-7.68-3.2-7.68-7.68s3.2-7.68 7.68-7.68h116.48c4.48 0 7.68 3.2 7.68 7.68s-3.84 7.68-7.68 7.68z" fill="#1296db" /><path d="M464 553.6c-40.96 0-71.04-55.68-71.04-92.8 0-39.04 32-71.04 71.04-71.04s71.04 32 71.04 71.04c-0.64 37.12-30.08 92.8-71.04 92.8z m0-148.48c-30.72 0-55.68 24.96-55.68 55.68 0 30.08 25.6 78.08 55.68 78.08 30.08 0 55.68-48 55.68-78.08 0-30.72-24.96-55.68-55.68-55.68zM513.28 986.88H413.44c-3.84 0-7.04-3.2-7.68-7.04L392.32 800c0-4.48 2.56-7.68 7.04-8.32 3.84-0.64 7.68 2.56 8.32 7.04l12.8 172.8h85.76l12.8-172.8c0-4.48 3.84-7.04 8.32-7.04 4.48 0 7.04 3.84 7.04 8.32l-13.44 179.84c0 3.84-3.84 7.04-7.68 7.04z" fill="#1296db" /><path d="M526.72 646.4h-1.28c-3.84-0.64-7.04-4.48-6.4-8.32l8.96-58.24c-0.64-13.44-19.84-25.6-35.2-25.6h-59.52c-15.36 0-34.56 12.16-35.2 25.6l8.96 58.24c0.64 3.84-1.92 7.68-6.4 8.32-4.48 0.64-7.68-1.92-8.32-6.4L384 581.12v-1.28c0-23.04 27.52-40.96 49.92-40.96h59.52c22.4 0 49.92 18.56 49.92 40.96v1.28l-8.96 58.88c-0.64 3.84-3.84 6.4-7.68 6.4z" fill="#1296db" /><path d="M576.64 806.4H350.72c-2.56 0-4.48-1.28-6.4-3.2-1.28-1.92-1.92-4.48-1.28-7.04l49.92-160.64c1.28-3.2 3.84-5.12 7.04-5.12h126.72c3.2 0 6.4 1.92 7.04 5.12l49.92 160c0.64 2.56 0 5.12-1.28 7.04-1.28 3.2-3.2 3.84-5.76 3.84z m-215.68-14.72h205.44l-44.8-145.28h-115.2l-45.44 145.28z" fill="#1296db" /><path d="M464 986.88c-4.48 0-7.68-3.2-7.68-7.68v-179.84c0-4.48 3.2-7.68 7.68-7.68s7.68 3.2 7.68 7.68V979.2c-0.64 3.84-3.84 7.68-7.68 7.68zM464 584.96c-21.76 0-39.04-17.28-39.04-39.04 0-4.48 3.2-7.68 7.68-7.68s7.68 3.2 7.68 7.68c0 13.44 10.88 23.68 23.68 23.68 13.44 0 23.68-10.88 23.68-23.68 0-4.48 3.2-7.68 7.68-7.68s7.68 3.2 7.68 7.68c0 21.76-17.92 39.04-39.04 39.04zM370.56 741.12c-1.28 0-1.92 0-3.2-0.64l-24.96-11.52c-3.2-1.28-5.12-5.76-3.84-8.96l45.44-147.2c1.28-3.84 5.76-6.4 9.6-5.12 3.84 1.28 6.4 5.76 5.12 9.6l-43.52 140.8 18.56 8.32c3.84 1.92 5.76 6.4 3.84 10.24-1.28 2.56-3.84 4.48-7.04 4.48zM556.16 741.12c-2.56 0-5.76-1.92-7.04-4.48-1.92-3.84 0-8.32 3.84-10.24l18.56-8.32-43.52-140.8c-1.28-3.84 1.28-8.32 5.12-9.6 3.84-1.28 8.32 1.28 9.6 5.12l45.44 147.2c1.28 3.84-0.64 7.68-3.84 8.96l-24.32 11.52c-1.28 0.64-2.56 0.64-3.84 0.64zM531.2 680.32H396.16c-4.48 0-7.68-3.2-7.68-7.68s3.2-7.68 7.68-7.68H531.2c4.48 0 7.68 3.2 7.68 7.68 0 3.84-3.2 7.68-7.68 7.68z" fill="#1296db" /></svg>