<?xml version="1.0" standalone="no"?><!DOCTYPE svg PUBLIC "-//W3C//DTD SVG 1.1//EN" "http://www.w3.org/Graphics/SVG/1.1/DTD/svg11.dtd"><svg class="icon" width="200px" height="200.00px" viewBox="0 0 1024 1024" version="1.1" xmlns="http://www.w3.org/2000/svg"><path d="M116 406.4c-4 0.8-7.2 0.8-11.2 0.8H104h-0.8L88 888h152.8l96-224-220.8-257.6zM920.8 423.2c-0.8 0-0.8 0 0 0-4.8 0-8.8-0.8-12.8-0.8L713.6 650.4l111.2 237.6H952l-31.2-464.8z" fill="#E4C25A" /><path d="M544.8 292.8c-8 2.4-16 3.2-24.8 3.2-8 0-15.2-0.8-23.2-3.2L336.8 664l-96 224h584L713.6 650.4 544.8 292.8z" fill="#F4D576" /><path d="M520 120c-48.8 0-88 39.2-88 88 0 40.8 27.2 75.2 64.8 84.8 8 2.4 15.2 3.2 23.2 3.2V120z" fill="#E54B9B" /><path d="M520 296c8.8 0 16.8-1.6 24.8-3.2C581.6 281.6 608 248 608 208c0-48.8-39.2-88-88-88v176z" fill="#C94288" /><path d="M920.8 280.8c-0.8 0 0 0 0 0zM920 280.8c-39.2 0-71.2 32-71.2 71.2 0 35.2 25.6 64 59.2 70.4 4 0.8 8 0.8 12 0.8V280.8zM920.8 423.2s-0.8 0 0 0c-0.8 0-0.8 0 0 0z" fill="#3A97DE" /><path d="M104.8 264.8c-0.8 0 0 0 0 0zM104.8 407.2s-0.8 0 0 0c-0.8 0-0.8 0 0 0zM104 264.8c-39.2 0-71.2 32-71.2 71.2s32 71.2 70.4 71.2h0.8V264.8zM991.2 352c0-39.2-31.2-70.4-70.4-71.2h-0.8v142.4h0.8c39.2-0.8 70.4-32 70.4-71.2z" fill="#3FA7F7" /><path d="M104 407.2s0.8 0 0 0c4.8 0 8-0.8 12-0.8 33.6-5.6 59.2-35.2 59.2-70.4 0-39.2-31.2-70.4-70.4-71.2H104v142.4z" fill="#3A97DE" /></svg>