<?xml version="1.0" standalone="no"?><!DOCTYPE svg PUBLIC "-//W3C//DTD SVG 1.1//EN" "http://www.w3.org/Graphics/SVG/1.1/DTD/svg11.dtd"><svg class="icon" width="200px" height="200.00px" viewBox="0 0 1024 1024" version="1.1" xmlns="http://www.w3.org/2000/svg"><path d="M928 48H147.2c-16 0-28.8 11.2-31.2 26.4h768c17.6 0 32 14.4 32 32v574.4c0 2.4 0 4-0.8 6.4h12c17.6 0 32-14.4 32-32V80c0.8-17.6-13.6-32-31.2-32z" fill="#9CB882" /><path d="M916.8 106.4c0-17.6-14.4-32-32-32H104c-17.6 0-32 14.4-32 32v574.4c0 17.6 14.4 32 32 32h341.6V936c0 17.6 14.4 32 32 32h14.4c17.6 0 32-14.4 32-32V712.8h360.8c16 0 28.8-11.2 31.2-26.4 0-1.6 0.8-4 0.8-6.4V106.4z m-353.6 168c131.2 85.6 131.2 172 0 257.6C432 617.6 366.4 575.2 366.4 403.2S432 188 563.2 274.4z" fill="#BEDF9F" /><path d="M563.2 532c131.2-85.6 131.2-172 0-257.6C432 188 366.4 231.2 366.4 403.2S432 617.6 563.2 532z" fill="#3A97DE" /><path d="M662.4 748.8c0-0.8-0.8-0.8-0.8-1.6-8.8-15.2-28-20-43.2-10.4-15.2 9.6-20.8 30.4-12 46.4l92.8 168c0 0.8 0.8 0.8 0.8 1.6 8.8 15.2 28 20 43.2 11.2 15.2-9.6 20.8-30.4 12-46.4L662.4 748.8zM324 744.8l-138.4 132.8c-0.8 0-0.8 0.8-1.6 0.8-12 12.8-12 32.8 0.8 44.8 13.6 12.8 34.4 12 48-0.8l138.4-132.8c0.8 0 0.8-0.8 1.6-0.8 12-12.8 12-32.8-0.8-44.8-14.4-12-35.2-12-48 0.8z" fill="#BEDF9F" /></svg>