<?xml version="1.0" standalone="no"?><!DOCTYPE svg PUBLIC "-//W3C//DTD SVG 1.1//EN" "http://www.w3.org/Graphics/SVG/1.1/DTD/svg11.dtd"><svg class="icon" width="200px" height="154.92px" viewBox="0 0 1322 1024" version="1.1" xmlns="http://www.w3.org/2000/svg"><path fill="#333333" d="M864.723937 1023.26005H158.626757A158.811745 158.811745 0 0 1 0 864.633293V158.628607A158.811745 158.811745 0 0 1 158.626757 0.00185h706.09718a157.239351 157.239351 0 0 1 158.071795 153.817083v2.034862a23.493409 23.493409 0 0 1 0 2.867306v163.621418l191.924502-110.992483a70.850202 70.850202 0 0 1 106.737771 61.600829v480.967426a71.31267 71.31267 0 0 1-71.220177 71.220177 69.925264 69.925264 0 0 1-35.425101-9.249374l-191.924502-110.992483v159.736682a34.500163 34.500163 0 0 1 0 4.717181v3.607255a158.164288 158.164288 0 0 1-158.164288 150.302321zM255.837673 146.234446a109.605077 109.605077 0 1 0 109.697571 109.512584 109.697571 109.697571 0 0 0-109.697571-109.512584z" /></svg>