<?xml version="1.0" standalone="no"?><!DOCTYPE svg PUBLIC "-//W3C//DTD SVG 1.1//EN" "http://www.w3.org/Graphics/SVG/1.1/DTD/svg11.dtd"><svg class="icon" width="200px" height="200.00px" viewBox="0 0 1024 1024" version="1.1" xmlns="http://www.w3.org/2000/svg"><path d="M382.4 551.2h268.8s-18.4 271.2-24 356c-0.8 16-10.4 16.8-10.4 16.8s-0.8 8.8-16 8.8H417.6c-16.8 0-18.4-8.8-18.4-8.8s-8.8 0-9.6-16c-0.8-84-7.2-356.8-7.2-356.8z m134.4 156c16.8 0 30.4 21.6 30.4 48s-13.6 48-30.4 48-30.4-21.6-30.4-48 13.6-48 30.4-48z" fill="#E6444C" /><path d="M516.8 321.6m-273.6 0a273.6 273.6 0 1 0 547.2 0 273.6 273.6 0 1 0-547.2 0Z" fill="#E54B9B" /><path d="M208 325.6c0-14.4 12-26.4 26.4-26.4h564c14.4 0 25.6 12 26.4 26.4v8.8c0 14.4-12 25.6-26.4 26.4H234.4c-14.4 0-26.4-12-26.4-26.4v-8.8z" fill="#F4D576" /><path d="M450.4 932.8h115.2c8.8 0 16 7.2 16 16v11.2c0 8.8-7.2 16-16 16H450.4c-8.8 0-16-7.2-16-16v-11.2c0-8.8 7.2-16 16-16z" fill="#3FA7F7" /></svg>