<?xml version="1.0" standalone="no"?><!DOCTYPE svg PUBLIC "-//W3C//DTD SVG 1.1//EN" "http://www.w3.org/Graphics/SVG/1.1/DTD/svg11.dtd"><svg class="icon" width="200px" height="200.00px" viewBox="0 0 1024 1024" version="1.1" xmlns="http://www.w3.org/2000/svg"><path fill="#333333" d="M839.7 184.3h-27.3V157c0-30.2-24.5-54.6-54.6-54.6H266.2c-30.2 0-54.6 24.5-54.6 54.6v27.3h-27.3c-45.2 0-81.9 36.7-81.9 81.9v54.6c0 45.2 36.7 81.9 81.9 81.9h27.3c0 156 120.5 285.1 273.1 299.1v110.5H408c-11.4 0-21.6 7.1-25.6 17.7L362 884.7c-3.1 8.4-2 17.8 3.1 25.1 5.1 7.4 13.5 11.8 22.4 11.8h248.9c9 0 17.3-4.4 22.4-11.8 5.1-7.4 6.3-16.8 3.1-25.1l-20.5-54.6c-4-10.7-14.2-17.7-25.6-17.7h-76.6V701.8c152.5-13.9 273.1-143.1 273.1-299.1h27.3c45.2 0 81.9-36.7 81.9-81.9v-54.6c0.1-45.1-36.6-81.9-81.8-81.9zM184.3 348.2c-15.1 0-27.3-12.2-27.3-27.3v-54.6c0-15.1 12.2-27.3 27.3-27.3h27.3v109.2h-27.3z m433.4-1.4l-44.1 45.1 9.9 61.9c1.3 3.8 0.6 7.9-1.7 11.2-2.3 3.2-6.1 5.2-10.1 5.2h-0.2c-2 0-4-0.5-5.8-1.4l-53.9-30-53.8 29.5c-0.9 5.7-5.7 10.1-11.5 10.4-5.8 0.3-11.1-3.4-12.7-9-1.6-5.6 0.9-11.5 6-14.3l10.5-63.8-44-45.2c-3.3-3.3-4.4-8.2-2.9-12.6 1.5-4.4 5.3-7.7 9.9-8.3l60.4-9.1 27.2-57.6c2.1-4.4 6.5-7.1 11.3-7.1 4.8 0 9.2 2.8 11.2 7.2l27 57.8 60.3 9.3c4.6 0.7 8.4 3.9 9.9 8.4 1.5 4.2 0.3 9.1-2.9 12.4zM867 320.9c0 15.1-12.2 27.3-27.3 27.3h-27.3V238.9h27.3c15.1 0 27.3 12.2 27.3 27.3v54.7z m0 0" /></svg>