<?xml version="1.0" standalone="no"?><!DOCTYPE svg PUBLIC "-//W3C//DTD SVG 1.1//EN" "http://www.w3.org/Graphics/SVG/1.1/DTD/svg11.dtd"><svg class="icon" width="200px" height="200.00px" viewBox="0 0 1024 1024" version="1.1" xmlns="http://www.w3.org/2000/svg"><path fill="#333333" d="M907.264 966.656H114.688c-16.384 0-32.768-8.192-43.008-20.48-10.24-14.336-14.336-30.72-10.24-47.104 40.96-208.896 210.944-364.544 415.744-380.928 68.608 0 142.848 8.704 217.088 38.912 21.504 8.704 28.672 14.336 40.96 20.48 118.784 67.584 200.704 184.32 227.328 321.536 4.096 16.384 0 32.768-12.288 47.104-10.24 12.288-26.624 20.48-43.008 20.48z"  /><path fill="#333333" d="M115.712 933.376c-6.656 0-12.8-2.56-16.384-7.168-0.512-0.512-0.512-1.024-1.024-1.536-5.12-5.12-5.632-13.824-4.608-18.944 37.888-194.56 197.12-340.48 387.584-354.304h15.36c91.648 0 179.712 28.672 222.72 55.808C832 674.816 907.264 780.8 930.816 905.728c1.024 7.168-0.512 13.824-5.632 20.48-3.584 4.608-9.728 7.168-16.384 7.168H115.712z"  /><path fill="#333333" d="M496.64 563.712c89.088 0 174.592 27.648 216.064 53.76h0.512c109.568 65.024 182.272 167.936 204.8 289.792 0.512 2.56 0.512 6.144-3.584 10.752-0.512 1.024-3.072 2.048-6.144 2.048H115.712c-3.072 0-5.632-1.024-6.144-2.048-0.512-1.024-1.536-2.048-2.56-2.56-1.024-1.024-2.048-4.096-1.024-7.68 36.864-188.928 190.976-330.24 375.808-344.064 4.608 0.512 9.728 0 14.848 0m0-25.6c-5.12 0-10.752 0-15.872 0.512C284.16 552.96 120.32 702.464 81.408 903.168c-2.048 10.24 0 22.528 8.192 30.72 6.144 8.192 16.384 12.288 26.624 12.288H908.8c10.24 0 20.48-4.096 26.624-12.288 6.144-8.192 10.24-18.432 8.192-30.72-24.576-131.072-102.4-238.592-217.088-307.2-43.52-27.136-132.608-57.856-229.888-57.856zM512 536.576c-129.024 0-235.52-106.496-235.52-235.52S382.976 65.536 512 65.536s235.52 106.496 235.52 235.52S641.024 536.576 512 536.576z"  /><path fill="#333333" d="M512 503.296c-111.616 0-202.24-90.624-202.24-202.24S400.384 98.816 512 98.816s202.24 90.624 202.24 202.24-90.624 202.24-202.24 202.24z"  /><path fill="#333333" d="M512 111.616c104.448 0 189.44 84.992 189.44 189.44S616.448 490.496 512 490.496s-189.44-84.992-189.44-189.44 84.992-189.44 189.44-189.44m0-25.6c-118.784 0-215.04 96.256-215.04 215.04s96.256 215.04 215.04 215.04 215.04-96.256 215.04-215.04S630.784 86.016 512 86.016z"  /></svg>