<?xml version="1.0" standalone="no"?><!DOCTYPE svg PUBLIC "-//W3C//DTD SVG 1.1//EN" "http://www.w3.org/Graphics/SVG/1.1/DTD/svg11.dtd"><svg class="icon" width="200px" height="200.00px" viewBox="0 0 1024 1024" version="1.1" xmlns="http://www.w3.org/2000/svg"><path fill="#333333" d="M917.1 3.9L429.9 139.4c-59 15.4-106.9 71.3-106.9 125v467.1s-35.3-21.6-113.9-11.5C93.6 735 0 815.6 0 900s93.6 136.3 209.1 121.4c115.6-14.8 200.2-92.9 200.2-177.5V445c0-37.5 49.5-53.6 49.5-53.6l430.8-122.7s47.7-14.5 47.7 25.6v320.2s-43.9-23-122.6-14.3c-115.4 12.7-209.1 91.6-209.1 176.1 0 84.6 93.6 138.1 209.1 125.3 115.6-12.6 209.2-91.5 209.2-176V73.3c0.1-53.6-47.8-84.7-106.8-69.4z m0 0" /></svg>